<?xml version="1.0" standalone="no"?>
<!DOCTYPE svg PUBLIC "-//W3C//DTD SVG 20010904//EN" "http://www.w3.org/TR/2001/REC-SVG-20010904/DTD/svg10.dtd">
<svg version="1.0" xmlns="http://www.w3.org/2000/svg"
    width="500.000000pt" height="500.000000pt" viewBox="0 0 500.000000 500.000000"
    preserveAspectRatio="xMidYMid meet">

    <g transform="translate(0.000000,500.000000) scale(0.100000,-0.100000)"
        fill="red" stroke="none">
        <path
            d="M1588 2804 c-3 -3 -4 -14 -1 -25 4 -14 14 -19 39 -19 l34 0 0 -315
c0 -308 0 -315 -20 -315 -30 0 -24 -29 8 -41 32 -13 113 -4 124 14 4 7 1 17
-7 23 -16 12 -19 166 -6 359 6 93 8 98 20 70 16 -39 91 -286 91 -302 0 -13 38
-38 46 -31 2 3 11 45 19 94 20 112 72 331 85 353 13 22 13 17 11 -289 -2 -244
-3 -255 -22 -264 -46 -21 -10 -31 123 -34 110 -2 137 0 147 12 16 19 6 36 -20
36 -17 0 -19 7 -19 63 1 34 7 100 14 147 l12 85 59 -2 c32 -1 63 -7 69 -13 13
-13 22 -280 9 -280 -5 0 -15 -12 -21 -26 l-12 -25 170 3 c137 2 170 6 170 17
0 8 -7 19 -16 26 -26 19 -47 309 -25 344 15 24 54 4 84 -43 23 -37 29 -61 36
-145 5 -56 5 -117 1 -138 -6 -23 -5 -42 1 -48 10 -10 340 -18 372 -9 25 8 21
33 -8 44 -21 8 -25 16 -25 52 1 56 25 236 33 244 3 3 33 3 65 -1 58 -6 60 -8
66 -38 3 -18 6 -80 7 -139 2 -89 0 -111 -14 -126 -32 -35 -21 -42 58 -42 l76
0 -5 33 c-3 17 -7 77 -10 132 l-5 100 20 -82 c18 -73 25 -86 68 -126 44 -41
54 -46 114 -52 37 -4 81 -4 99 -1 18 4 69 6 113 6 97 0 120 10 88 39 -27 25
-37 112 -31 257 6 133 14 144 107 144 36 0 72 -4 79 -8 9 -6 13 -58 14 -194 3
-181 2 -187 -20 -210 -12 -14 -22 -27 -22 -31 0 -9 245 -1 260 8 9 5 5 14 -12
29 l-25 21 9 240 c4 132 6 263 2 292 -4 44 -2 55 15 72 43 43 31 50 -101 53
-68 2 -134 0 -148 -3 -35 -8 -36 -32 -2 -45 31 -12 42 -45 42 -131 0 -40 -1
-42 -36 -49 -47 -9 -134 0 -143 15 -4 7 -7 44 -6 84 2 65 5 72 24 75 30 5 23
34 -9 42 -14 4 -55 5 -92 2 -73 -5 -86 -18 -45 -44 22 -15 22 -17 26 -312 2
-211 0 -296 -8 -296 -6 0 -11 19 -11 45 0 33 -5 47 -19 54 -25 14 -31 5 -31
-45 0 -33 -5 -46 -22 -58 -61 -43 -121 0 -160 112 -20 58 -23 86 -23 208 l0
141 36 69 c35 68 36 69 79 72 69 5 88 -3 92 -40 2 -17 9 -33 16 -36 10 -3 12
8 10 43 -4 61 -34 86 -111 93 -63 5 -99 -10 -151 -64 -41 -42 -60 -94 -77
-204 -7 -44 -14 -78 -16 -76 -2 2 -8 43 -14 92 -26 230 -104 320 -174 200 -56
-96 -75 -165 -101 -366 -30 -240 -30 -239 -57 -249 -49 -18 -49 -20 -42 308 7
291 8 307 28 322 34 27 12 39 -74 39 -72 0 -79 -2 -79 -20 0 -10 6 -23 14 -27
12 -7 15 -60 17 -313 2 -298 1 -305 -18 -308 -16 -2 -21 4 -26 35 -4 21 -7 61
-7 89 0 77 -19 164 -46 213 l-24 44 24 26 c36 39 46 65 46 119 0 94 -56 140
-169 141 -77 1 -179 -19 -186 -37 -7 -19 13 -42 36 -42 23 0 24 -7 20 -447 -1
-142 -2 -153 -20 -153 -16 0 -19 12 -25 98 -16 217 -37 408 -52 458 -36 123
-93 155 -145 79 -51 -74 -86 -196 -109 -380 -29 -236 -28 -231 -57 -244 -14
-6 -33 -9 -43 -6 -18 6 -19 26 -20 320 l0 315 23 0 c29 0 37 7 30 26 -4 10
-23 14 -68 14 -68 0 -91 -12 -99 -53 -3 -12 -16 -71 -30 -132 -14 -60 -28
-127 -32 -148 -3 -20 -10 -39 -14 -42 -9 -6 -31 45 -68 155 -16 47 -41 113
-56 147 -26 57 -31 62 -71 72 -47 12 -108 15 -117 5z m1163 -75 c6 -13 9 -47
7 -82 -5 -65 -29 -97 -73 -97 -19 0 -23 7 -29 53 -3 28 -6 73 -6 100 l0 47 45
0 c35 0 47 -4 56 -21z m1417 -286 c-3 -278 -5 -308 -20 -311 -13 -3 -18 8 -24
55 -10 73 -12 522 -2 546 4 9 17 17 28 17 20 0 20 -4 18 -307z m-1789 225 c7
-29 15 -88 18 -132 l6 -79 -57 5 c-31 3 -61 9 -66 14 -8 9 29 174 50 222 16
37 36 26 49 -30z m890 15 c6 -21 15 -80 18 -130 l6 -93 -39 0 c-61 0 -84 10
-84 34 0 24 33 156 50 200 14 37 35 32 49 -11z" />
        <path
            d="M763 2788 c-66 -10 -87 -34 -35 -40 l27 -3 3 -312 2 -313 -30 0 c-19
0 -30 -5 -30 -14 0 -9 18 -15 58 -20 75 -8 456 -6 506 2 l39 7 -2 83 c-3 93
-7 112 -27 112 -10 0 -14 -21 -16 -77 l-3 -78 -45 0 -45 0 -3 80 c-6 135 19
527 34 550 8 11 14 23 14 27 0 11 -372 8 -447 -4z m225 -40 c7 -7 12 -23 12
-36 0 -39 34 -24 41 18 l6 35 12 -29 c19 -46 25 -265 12 -441 -12 -164 -23
-204 -38 -144 -11 42 -36 44 -43 4 -5 -29 -7 -30 -63 -29 -32 1 -60 4 -64 7
-3 3 -6 68 -7 144 l-1 138 34 3 c25 3 37 -2 48 -17 25 -36 34 -24 31 41 -3 64
-21 88 -32 43 -7 -26 -20 -29 -65 -16 -23 6 -24 10 -28 128 -5 113 -4 122 16
142 24 24 108 30 129 9z" />
    </g>
</svg>